<svg id="Layer_1" data-name="Layer 1" xmlns="http://www.w3.org/2000/svg" viewBox="0 0 431 203"><defs><style>.cls-1{fill:#005e12;}.cls-2{fill:#178e1c;}.cls-3{font-size:77.71px;font-family:FilsonProMedium, Filson Pro;}.cls-4{letter-spacing:-0.02em;}.cls-5{letter-spacing:-0.03em;}.cls-6{letter-spacing:0em;}.cls-7{letter-spacing:-0.01em;}</style></defs><title>Artboard 3</title><path class="cls-1" d="M46.18,115.59c63.41,3.84,77.43-36.17,80.47-51.67C101.1,95.57,62.52,110.44,46.18,115.59Z"/><path class="cls-1" d="M15.32,3.93c-36.81,53.34,1.74,93.71,16.91,106.58C25.42,96,9.81,56.1,15.32,3.93Z"/><path class="cls-2" d="M43.77,115.42a49.88,49.88,0,0,1,1.84-6c17-5.58,55.38-21.07,78.92-52.55C89.93,45.4,58.64,83.39,45,103.38a1.8,1.8,0,0,0-.2-.19C79.49,39.29,33.9,7.53,21.76.49c-6.37,50.58,8.37,90.64,15.3,106.05a54.87,54.87,0,0,0-2,6.3c-.19.72-.37,1.49-.55,2.3-2.89,13.07-4.75,37.86,8.65,72.16A4.5,4.5,0,1,0,51.57,184c-12.81-32.79-10.62-56.22-8-67.63C43.62,116.06,43.7,115.73,43.77,115.42Z"/><text class="cls-3" transform="translate(54.56 184.27)">Ti<tspan class="cls-4" x="67.22" y="0">n</tspan><tspan class="cls-5" x="113.07" y="0">y</tspan><tspan class="cls-6" x="155.35" y="0" xml:space="preserve"> Pla</tspan><tspan class="cls-7" x="295.78" y="0">n</tspan><tspan class="cls-6" x="342.48" y="0">t</tspan></text></svg>