<svg id="Layer_1" data-name="Layer 1" xmlns="http://www.w3.org/2000/svg" viewBox="0 0 430 202"><defs><style>.cls-1{fill:#005e12;}.cls-2{fill:#178e1c;}</style></defs><title>Artboard 3</title><path class="cls-1" d="M46.18,115.59c63.41,3.84,77.43-36.17,80.47-51.67C101.1,95.57,62.52,110.44,46.18,115.59Z"/><path class="cls-1" d="M15.32,3.93c-36.81,53.34,1.74,93.71,16.91,106.58C25.42,96,9.81,56.1,15.32,3.93Z"/><path class="cls-2" d="M43.77,115.42a49.88,49.88,0,0,1,1.84-6c17-5.58,55.38-21.07,78.92-52.55C89.93,45.4,58.64,83.39,45,103.38a1.8,1.8,0,0,0-.2-.19C79.49,39.29,33.9,7.53,21.76.49c-6.37,50.58,8.37,90.64,15.3,106.05a54.87,54.87,0,0,0-2,6.3c-.19.72-.37,1.49-.55,2.3-2.89,13.07-4.75,37.86,8.65,72.16A4.5,4.5,0,1,0,51.57,184c-12.81-32.79-10.62-56.22-8-67.63C43.62,116.06,43.7,115.73,43.77,115.42Z"/><path d="M99.48,129.87v8H82.69v46.39h-10V137.88H56.11v-8Z"/><path d="M111.44,127.23a6.14,6.14,0,0,1,6.38,6.06,6.08,6.08,0,0,1-6.38,6,5.94,5.94,0,0,1-6.21-6A6,6,0,0,1,111.44,127.23Zm-4.81,57V145h9.55v39.32Z"/><path d="M127.22,145h9.56v6.6c2.49-5.13,7.15-7.46,12.74-7.46,9.8,0,14.54,7.08,14.54,18.42v21.76H154.5V162.59c0-6.84-2.88-10.42-7.62-10.42-5.59,0-10.1,4.2-10.1,12.44v19.66h-9.56Z"/><path d="M200.5,145h10.73l-24.4,57.12h-9.41l8-20.13-16.71-37h10.8l10.73,27Z"/><path d="M236.64,184.27v-54.4h22.85c10.88,0,17,8.08,17,17.49s-6.22,17-17,17h-12.9v19.89Zm21.29-27.74c5.21,0,8.4-3.81,8.4-9.25,0-5.6-3.19-9.4-8.4-9.4H246.59v18.65Z"/><path d="M284.59,184.27V128.08h9.56v56.19Z"/><path d="M344.89,145v39.32h-9.55v-5.91c-2.8,4.28-7.7,6.76-13.45,6.76-11.66,0-19.27-9.16-19.27-20.67,0-11.11,7.3-20.36,19.35-20.36a15.93,15.93,0,0,1,13.37,6.69V145Zm-21.06,32.17c6.53,0,11.74-4.43,11.74-12.2,0-7.62-4.9-12.82-12-12.82-7.23,0-11.35,5.67-11.35,12.43C312.25,171.53,316.68,177.12,323.83,177.12Z"/><path d="M355.77,145h9.56v6.6c2.49-5.13,7.15-7.46,12.75-7.46,9.79,0,14.53,7.08,14.53,18.42v21.76h-9.56V162.59c0-6.84-2.87-10.42-7.61-10.42-5.6,0-10.11,4.2-10.11,12.44v19.66h-9.56Z"/><path d="M414.29,145H426v7.3H414.29v20.6c0,2.41,1,4.27,3.81,4.27a3.76,3.76,0,0,0,3.89-4,9.5,9.5,0,0,0-.55-3.26h7.85a12.39,12.39,0,0,1,.86,4.43c0,5.75-4,10.87-12.44,10.87-6.53,0-13-2.79-13-13.59V152.25h-6.14V145h6.61l1.71-10.49h7.38Z"/></svg>